<?xml version="1.0" encoding="UTF-8" standalone="no"?>
<!DOCTYPE svg PUBLIC "-//W3C//DTD SVG 1.1//EN" "http://www.w3.org/Graphics/SVG/1.1/DTD/svg11.dtd">
<svg width="100%" height="100%" viewBox="0 0 844 461" version="1.1" xmlns="http://www.w3.org/2000/svg" xmlns:xlink="http://www.w3.org/1999/xlink" xml:space="preserve" xmlns:serif="http://www.serif.com/" style="fill-rule:evenodd;clip-rule:evenodd;stroke-linecap:round;stroke-linejoin:round;stroke-miterlimit:1.5;">
    <g transform="matrix(1,0,0,1,-538.006,-309.806)">
        <g id="Logo" transform="matrix(1,0,0,1,279.988,-65.1735)">
            <g id="Background" transform="matrix(0.933333,0,0,0.933333,-150.655,96.0401)">
                <path d="M1340,423.25L1340,667.75C1340,735.222 1285.22,790 1217.75,790L562.25,790C494.778,790 440,735.222 440,667.75L440,423.25C440,355.778 494.778,301 562.25,301L1217.75,301C1285.22,301 1340,355.778 1340,423.25Z" style="fill:white;stroke:black;stroke-width:4.27px;"/>
            </g>
            <g id="Wave" transform="matrix(1.28483,0,0,1.28483,-558.004,-79.678)">
                <path d="M1057.01,479.398L1120.25,479.398C1122.81,479.398 1125.32,492.398 1127.74,492.398C1129.86,492.398 1131.91,468.398 1133.88,468.398C1135.58,468.398 1137.12,479.398 1138.78,479.398L1154.11,479.398C1159.23,479.398 1162.18,411.94 1164.79,411.94C1174.37,411.94 1163.73,518.208 1173.54,518.208C1178.31,518.208 1178.99,460.208 1180.41,460.208C1183.46,460.208 1183.53,488.173 1186.9,488.208C1188.02,488.219 1189.17,479.398 1190.38,479.398C1192.97,479.398 1195.74,480.283 1198.56,479.398C1200.14,478.902 1201.73,471.398 1203.33,471.398C1205.4,471.398 1207.47,479.113 1209.47,479.398C1215.41,480.245 1220.82,479.398 1224.42,479.398L1237.57,479.398C1239.53,479.398 1241.34,488.208 1242.94,488.208C1244.36,488.208 1245.53,479.398 1246.7,479.398L1251.24,479.398" style="stroke:black;stroke-width:3.1px;"/>
            </g>
            <g id="Text" transform="matrix(0.68291,0,0,0.68291,-60.4608,175.367)">
                <g id="R" transform="matrix(1.35147,0,0,1.35147,-176.897,-73.4347)">
                    <path d="M635.452,447.5L649.126,447.5C655.329,447.5 659.444,445.088 661.469,440.264C662.229,438.613 662.609,436.836 662.609,434.932L662.609,419.317C662.609,413.35 659.824,409.351 654.253,407.32C652.607,406.812 650.898,406.558 649.126,406.558L635.452,406.558L635.452,447.5ZM715.782,520.814C715.149,523.861 713.25,525.575 710.085,525.956L680.84,525.956C675.396,525.956 670.775,523.417 666.977,518.339C666.723,518.085 666.217,517.387 665.457,516.244L642.099,475.683L635.452,475.683L635.452,516.244C635.452,520.56 633.553,523.544 629.755,525.194C628.489,525.702 627.16,525.956 625.767,525.956L598.421,525.956C594.116,525.956 591.141,524.051 589.495,520.243C588.989,518.846 588.736,517.513 588.736,516.244L588.736,388.277C588.736,383.961 590.635,380.977 594.433,379.327C595.825,378.819 597.155,378.565 598.421,378.565L649.126,378.565C667.103,378.565 681.853,383.326 693.374,392.847C703.882,401.734 709.199,413.16 709.326,427.124C709.326,444.136 701.856,457.085 686.917,465.971C686.03,466.479 685.144,466.987 684.258,467.495L714.073,516.244C715.213,517.767 715.782,519.291 715.782,520.814Z" style="fill:url(#_Linear1);fill-rule:nonzero;"/>
                </g>
                <g id="Fast" transform="matrix(1.51131,0,0,1.51131,-67.5757,-172.305)">
                    <path d="M596.25,532.788C593.595,532.788 591.402,532.369 589.67,531.53C587.939,530.69 586.568,529.533 585.558,528.057C584.548,526.581 583.812,524.83 583.35,522.805C582.888,520.779 582.571,518.609 582.398,516.294C581.647,507.323 581.07,498.382 580.666,489.469C580.262,480.556 580.06,471.614 580.06,462.644C580.06,450.2 580.407,437.815 581.099,425.488C581.272,423.057 581.72,420.8 582.441,418.716C583.163,416.633 584.173,414.824 585.471,413.291C586.77,411.757 588.386,410.541 590.319,409.644C592.253,408.747 594.461,408.299 596.942,408.299L615.123,408.212C621.357,408.212 627.619,408.328 633.91,408.559C640.201,408.791 646.434,409.427 652.61,410.469C655.15,410.874 657.199,411.627 658.757,412.726C660.315,413.826 661.513,415.157 662.35,416.72C663.187,418.282 663.735,420.076 663.995,422.102C664.255,424.128 664.384,426.269 664.384,428.526C664.384,429.857 664.356,431.738 664.298,434.169C664.24,436.6 664.11,439.248 663.908,442.112C663.706,444.977 663.418,447.9 663.042,450.88C662.667,453.861 662.162,456.567 661.527,458.997C660.893,461.428 660.113,463.425 659.19,464.988C658.266,466.55 657.141,467.331 655.813,467.331C653.62,467.331 651.398,467.114 649.147,466.68C646.896,466.246 644.689,465.769 642.524,465.248C640.36,464.727 638.253,464.25 636.204,463.816C634.155,463.381 632.207,463.164 630.36,463.164C628.34,463.164 627.042,463.714 626.464,464.814C625.887,465.914 625.599,467.36 625.599,469.155C625.599,469.849 625.555,470.746 625.469,471.846C625.382,472.945 625.397,474.031 625.512,475.101C625.628,476.172 625.916,477.083 626.378,477.836C626.84,478.588 627.59,478.964 628.629,478.964C629.783,478.964 630.981,478.878 632.222,478.704C633.463,478.53 634.877,478.328 636.464,478.096C638.051,477.865 639.869,477.662 641.918,477.489C643.967,477.315 646.348,477.228 649.061,477.228C650.965,477.228 652.581,477.72 653.909,478.704C655.236,479.688 656.304,480.918 657.112,482.393C657.92,483.869 658.497,485.504 658.844,487.298C659.19,489.093 659.363,490.771 659.363,492.334C659.363,494.301 659.147,495.907 658.714,497.152C658.281,498.396 657.675,499.394 656.896,500.147C656.116,500.899 655.193,501.42 654.125,501.709C653.057,501.999 651.86,502.143 650.532,502.143C649.263,502.143 647.906,502.042 646.463,501.84C645.02,501.637 643.534,501.42 642.005,501.188C640.475,500.957 638.931,500.74 637.373,500.537C635.815,500.335 634.285,500.234 632.784,500.234C632.265,500.234 631.717,500.219 631.14,500.19C630.562,500.161 630.014,500.219 629.495,500.364C628.975,500.508 628.542,500.74 628.196,501.058C627.85,501.377 627.677,501.883 627.677,502.577C627.677,504.14 628.081,505.775 628.889,507.482C629.697,509.19 630.606,510.984 631.616,512.865C632.626,514.746 633.535,516.685 634.343,518.681C635.151,520.678 635.555,522.747 635.555,524.888C635.555,526.335 635.136,527.536 634.3,528.491C633.463,529.446 632.366,530.227 631.01,530.835C629.653,531.443 628.124,531.877 626.421,532.137C624.719,532.398 623.03,532.586 621.357,532.701C619.683,532.817 618.081,532.861 616.552,532.832C615.022,532.803 613.767,532.788 612.786,532.788L596.25,532.788Z" style="fill-rule:nonzero;"/>
                    <path d="M740.202,532.788C738.874,532.788 737.316,532.745 735.527,532.658C733.738,532.571 731.963,532.34 730.202,531.964C728.442,531.587 726.783,531.038 725.224,530.314C723.666,529.591 722.483,528.621 721.675,527.406C721.271,526.827 720.968,526.017 720.766,524.975C720.564,523.933 720.362,522.892 720.16,521.85C719.958,520.808 719.712,519.911 719.424,519.159C719.135,518.406 718.702,518.03 718.125,518.03C717.663,518.03 716.653,518.797 715.095,520.331C713.537,521.864 711.56,523.557 709.165,525.409C706.769,527.261 703.999,528.954 700.853,530.488C697.708,532.021 694.259,532.788 690.508,532.788C685.198,532.788 680.667,532.079 676.915,530.661C673.164,529.243 670.119,527.232 667.782,524.628C665.444,522.024 663.742,518.869 662.674,515.165C661.606,511.461 661.072,507.323 661.072,502.751C661.072,499.568 661.736,496.718 663.063,494.2C664.391,491.682 666.166,489.425 668.388,487.429C670.61,485.432 673.135,483.725 675.963,482.307C678.791,480.889 681.72,479.717 684.75,478.791C687.781,477.865 690.782,477.185 693.754,476.751C696.727,476.317 699.454,476.1 701.936,476.1C704.475,476.1 706.827,476.056 708.991,475.969C711.156,475.883 713.032,475.723 714.619,475.492C716.206,475.26 717.447,474.985 718.342,474.667C719.236,474.349 719.683,473.929 719.683,473.408C719.683,472.887 719.438,472.381 718.948,471.889C718.457,471.397 717.793,470.949 716.956,470.544C716.119,470.138 715.182,469.806 714.143,469.545C713.104,469.285 712.036,469.155 710.939,469.155C707.707,469.155 704.389,469.646 700.983,470.63C697.578,471.614 694.331,472.685 691.244,473.842C688.156,475 685.328,476.071 682.759,477.055C680.191,478.038 678.156,478.53 676.656,478.53C672.846,478.53 669.917,476.476 667.868,472.367C665.819,468.257 664.795,461.718 664.795,452.747C664.795,447.885 665.993,443.501 668.388,439.595C670.783,435.688 674.217,432.36 678.69,429.611C683.163,426.862 688.56,424.75 694.88,423.274C701.2,421.798 708.284,421.06 716.134,421.06C722.944,421.06 728.832,421.813 733.795,423.317C738.759,424.822 742.972,426.92 746.435,429.611C749.898,432.303 752.697,435.558 754.833,439.378C756.968,443.198 758.642,447.422 759.854,452.052C761.066,456.682 761.874,461.66 762.278,466.984C762.682,472.309 762.884,477.836 762.884,483.565C762.884,489.874 762.798,496.11 762.625,502.274C762.452,508.437 762.365,514.673 762.365,520.982C762.365,522.429 761.975,523.731 761.196,524.888C760.417,526.046 759.378,527.059 758.08,527.927C756.781,528.795 755.338,529.533 753.751,530.141C752.164,530.748 750.547,531.255 748.903,531.66C747.258,532.065 745.67,532.354 744.141,532.528C742.611,532.701 741.298,532.788 740.202,532.788ZM706.957,509.957C708.342,509.957 709.771,509.725 711.242,509.262C712.714,508.799 714.027,508.162 715.182,507.352C715.701,507.005 716.105,506.513 716.394,505.876C716.682,505.24 716.899,504.545 717.043,503.793C717.187,503.04 717.274,502.274 717.303,501.492C717.332,500.711 717.346,500.002 717.346,499.365C717.346,497.919 717.231,496.631 717,495.502C716.769,494.374 716.105,493.346 715.008,492.42C714.431,491.957 713.306,491.74 711.632,491.769C709.958,491.798 708.227,492.16 706.438,492.854C704.648,493.549 703.047,494.605 701.633,496.023C700.219,497.441 699.511,499.279 699.511,501.536C699.511,503.04 699.714,504.328 700.118,505.399C700.522,506.47 701.07,507.338 701.762,508.003C702.455,508.669 703.249,509.161 704.143,509.479C705.038,509.797 705.976,509.957 706.957,509.957Z" style="fill-rule:nonzero;"/>
                    <path d="M813.348,532.962C810.289,532.962 807.115,532.745 803.825,532.311C800.535,531.877 797.289,531.168 794.085,530.184C790.882,529.2 787.852,527.941 784.995,526.408C782.138,524.874 779.613,523.007 777.42,520.808C775.226,518.609 773.495,516.048 772.225,513.125C770.955,510.203 770.32,506.889 770.32,503.185C770.32,501.68 770.494,500.118 770.84,498.497C771.186,496.877 771.792,495.386 772.658,494.026C773.524,492.666 774.664,491.552 776.078,490.684C777.492,489.816 779.266,489.382 781.402,489.382C782.152,489.382 783.177,489.657 784.475,490.207C785.774,490.756 787.304,491.436 789.064,492.247C790.824,493.057 792.729,493.954 794.778,494.938C796.827,495.922 798.933,496.819 801.098,497.629C803.262,498.439 805.427,499.119 807.591,499.669C809.755,500.219 811.848,500.494 813.868,500.494C814.156,500.494 814.531,500.479 814.993,500.451C815.455,500.422 815.902,500.349 816.335,500.234C816.768,500.118 817.129,499.93 817.417,499.669C817.706,499.409 817.85,499.047 817.85,498.584C817.85,497.658 817.186,496.862 815.859,496.197C814.531,495.531 812.785,494.88 810.621,494.243C808.457,493.607 805.989,492.927 803.219,492.203C800.449,491.48 797.606,490.597 794.691,489.556C791.777,488.514 788.934,487.241 786.164,485.736C783.393,484.231 780.926,482.408 778.761,480.267C776.597,478.125 774.851,475.593 773.524,472.67C772.196,469.748 771.532,466.319 771.532,462.383C771.532,455.843 772.687,450.012 774.995,444.89C777.304,439.768 780.435,435.428 784.389,431.868C788.342,428.309 792.916,425.589 798.111,423.708C803.305,421.827 808.76,420.887 814.474,420.887C817.475,420.887 820.664,421.118 824.04,421.581C827.417,422.044 830.793,422.768 834.17,423.751C837.546,424.735 840.792,426.009 843.909,427.571C847.026,429.134 849.782,431.029 852.177,433.257C854.572,435.486 856.477,438.047 857.891,440.94C859.305,443.834 860.012,447.133 860.012,450.837C860.012,454.83 859.738,458.491 859.19,461.819C858.641,465.147 857.689,468.026 856.333,470.457C854.976,472.887 853.144,474.768 850.835,476.1C848.527,477.431 845.583,478.096 842.005,478.096C839.927,478.096 838.065,478.024 836.42,477.879C834.776,477.735 833.39,477.402 832.265,476.881C831.139,476.36 830.274,475.622 829.668,474.667C829.062,473.712 828.759,472.424 828.759,470.804C828.759,469.646 828.239,468.749 827.2,468.113C826.161,467.476 825.065,467.158 823.91,467.158C821.602,467.158 820.072,467.635 819.322,468.59C818.572,469.545 818.196,470.891 818.196,472.627C818.196,474.479 818.817,475.854 820.058,476.751C821.299,477.648 822.929,478.284 824.949,478.661C826.969,479.037 829.264,479.268 831.832,479.355C834.4,479.442 837.026,479.587 839.71,479.789C842.394,479.992 845.02,480.368 847.589,480.918C850.157,481.467 852.451,482.408 854.471,483.739C856.491,485.07 858.122,486.908 859.363,489.252C860.604,491.596 861.224,494.677 861.224,498.497C861.224,502.606 860.517,506.325 859.103,509.653C857.689,512.981 855.799,515.918 853.432,518.464C851.066,521.011 848.281,523.195 845.078,525.019C841.875,526.842 838.513,528.346 834.992,529.533C831.471,530.719 827.85,531.587 824.127,532.137C820.404,532.687 816.811,532.962 813.348,532.962Z" style="fill-rule:nonzero;"/>
                    <path d="M916.119,532.788C908.5,532.788 902.281,531.848 897.462,529.967C892.642,528.086 888.862,525.366 886.12,521.806C883.379,518.247 881.503,513.935 880.493,508.871C879.483,503.807 878.978,498.121 878.978,491.813C878.978,489.266 879.007,487.11 879.065,485.345C879.122,483.58 879.151,481.873 879.151,480.223C879.151,478.574 879.065,476.852 878.891,475.058C878.718,473.264 878.401,471.122 877.939,468.634C877.824,467.997 877.535,467.201 877.073,466.246C876.612,465.291 876.034,464.38 875.342,463.512C874.649,462.644 873.885,461.906 873.048,461.298C872.211,460.69 871.331,460.386 870.407,460.386C869.541,460.386 868.762,460.198 868.07,459.822C867.377,459.446 866.771,458.78 866.252,457.825C865.732,456.871 865.342,455.568 865.083,453.919C864.823,452.269 864.693,450.2 864.693,447.712C864.693,445.223 864.895,443.053 865.299,441.201C865.703,439.349 866.208,437.815 866.814,436.6C867.42,435.384 868.041,434.473 868.676,433.865C869.31,433.257 869.83,432.954 870.234,432.954C872.081,432.954 873.437,432.751 874.303,432.346C875.169,431.941 875.76,431.362 876.078,430.61C876.395,429.857 876.525,428.946 876.467,427.875C876.41,426.804 876.381,425.632 876.381,424.359C876.381,421.06 876.944,418.297 878.069,416.069C879.194,413.84 880.695,412.032 882.571,410.643C884.447,409.254 886.64,408.255 889.151,407.648C891.661,407.04 894.302,406.736 897.072,406.736C900.362,406.736 903.508,407.228 906.509,408.212C909.51,409.196 912.151,410.44 914.431,411.945C916.71,413.45 918.528,415.143 919.885,417.023C921.241,418.904 921.919,420.742 921.919,422.536C921.919,423.694 921.876,424.677 921.789,425.488C921.703,426.298 921.587,427.065 921.443,427.788C921.299,428.512 921.126,429.264 920.924,430.045C920.722,430.827 920.534,431.796 920.361,432.954L941.832,432.954C943.563,432.954 944.689,434.227 945.208,436.773C945.727,439.32 945.987,443.14 945.987,448.233C945.987,450.779 945.785,453.094 945.381,455.178C944.977,457.261 944.487,459.055 943.909,460.56C943.332,462.065 942.741,463.222 942.135,464.033C941.529,464.843 940.995,465.248 940.533,465.248C940.071,465.248 939.234,465.233 938.022,465.205C936.81,465.176 935.411,465.161 933.823,465.161C932.236,465.161 930.577,465.19 928.845,465.248C927.114,465.306 925.483,465.393 923.954,465.508C922.424,465.624 921.126,465.798 920.058,466.029C918.99,466.261 918.341,466.55 918.11,466.897C917.937,467.187 917.793,467.766 917.677,468.634C917.562,469.502 917.49,470.529 917.461,471.716C917.432,472.902 917.417,474.19 917.417,475.579C917.417,476.968 917.432,478.284 917.461,479.529C917.49,480.773 917.518,481.916 917.547,482.958C917.576,484 917.591,484.781 917.591,485.302C917.591,487.154 917.605,488.948 917.634,490.684C917.663,492.42 917.937,493.954 918.456,495.285C918.976,496.616 919.87,497.673 921.14,498.454C922.41,499.235 924.257,499.626 926.681,499.626C928.124,499.626 929.495,499.409 930.793,498.975C932.092,498.541 933.376,498.078 934.646,497.586C935.916,497.094 937.142,496.631 938.325,496.197C939.508,495.763 940.706,495.546 941.918,495.546C943.996,495.546 945.67,496.312 946.939,497.846C948.209,499.38 949.19,501.203 949.883,503.315C950.576,505.428 951.037,507.598 951.268,509.826C951.499,512.055 951.615,513.892 951.615,515.339C951.615,518.117 950.619,520.591 948.628,522.761C946.636,524.932 943.981,526.755 940.663,528.231C937.344,529.706 933.549,530.835 929.278,531.616C925.007,532.398 920.621,532.788 916.119,532.788Z" style="fill-rule:nonzero;"/>
                </g>
                <g id="Speech">
                    <g transform="matrix(1,0,0,1,-774.856,201.985)">
                        <path d="M1438.35,618.58C1428.99,618.58 1420.01,617.593 1411.43,615.62C1402.85,613.646 1395.27,610.571 1388.71,606.394C1382.15,602.217 1376.91,596.824 1373.01,590.215C1369.11,583.606 1367.16,575.665 1367.16,566.394C1367.16,563.823 1367.6,561.322 1368.47,558.889C1369.34,556.457 1370.65,554.3 1372.39,552.418C1374.14,550.536 1376.34,549.021 1379,547.874C1381.66,546.726 1384.79,546.153 1388.37,546.153C1391.67,546.153 1394.7,546.68 1397.45,547.736C1400.21,548.792 1402.82,550.146 1405.3,551.798C1407.78,553.45 1410.19,555.195 1412.53,557.031C1414.87,558.866 1417.24,560.611 1419.62,562.263C1422.01,563.915 1424.46,565.269 1426.99,566.325C1429.51,567.381 1432.29,567.908 1435.32,567.908C1436.33,567.908 1437.45,567.748 1438.69,567.426C1439.93,567.105 1440.55,566.256 1440.55,564.879C1440.55,562.676 1439.47,560.427 1437.32,558.132C1435.16,555.837 1432.29,553.473 1428.71,551.041C1425.13,548.608 1421.07,546.015 1416.53,543.261C1411.98,540.507 1407.32,537.593 1402.55,534.517C1397.78,531.442 1393.12,528.115 1388.57,524.535C1384.03,520.955 1379.97,517.099 1376.39,512.968C1372.81,508.837 1369.94,504.385 1367.78,499.612C1365.62,494.838 1364.55,489.652 1364.55,484.052C1364.55,472.853 1366.5,463.1 1370.4,454.792C1374.3,446.485 1379.67,439.6 1386.51,434.138C1393.35,428.676 1401.36,424.591 1410.54,421.883C1419.71,419.175 1429.54,417.821 1440,417.821C1444.96,417.821 1450.24,418.211 1455.84,418.992C1461.44,419.772 1467.01,421.103 1472.57,422.985C1478.12,424.867 1483.47,427.322 1488.61,430.351C1493.75,433.381 1498.29,437.167 1502.24,441.711C1506.19,446.255 1509.33,451.602 1511.67,457.753C1514.01,463.903 1515.18,471.017 1515.18,479.095C1515.18,484.603 1514.38,490.203 1512.77,495.894C1511.17,501.585 1508.99,506.703 1506.23,511.247C1503.48,515.791 1500.24,519.509 1496.53,522.4C1492.81,525.292 1488.79,526.738 1484.48,526.738C1480.9,526.738 1477.48,526.416 1474.22,525.774C1470.96,525.131 1468.05,524.121 1465.48,522.745C1462.9,521.368 1460.86,519.646 1459.35,517.581C1457.83,515.516 1457.08,513.06 1457.08,510.214C1457.08,508.103 1456.96,506.038 1456.73,504.018C1456.5,501.999 1456.07,500.209 1455.42,498.648C1454.78,497.087 1453.84,495.848 1452.6,494.93C1451.36,494.012 1449.78,493.553 1447.85,493.553C1445.19,493.553 1443.15,494.425 1441.72,496.169C1440.3,497.914 1439.59,500.392 1439.59,503.605C1439.59,506.726 1440.69,509.526 1442.89,512.004C1445.1,514.483 1448.01,516.778 1451.64,518.889C1455.26,521 1459.39,523.066 1464.03,525.085C1468.66,527.105 1473.39,529.216 1478.21,531.419C1483.03,533.622 1487.74,536.009 1492.33,538.579C1496.92,541.15 1501.02,544.11 1504.65,547.461C1508.28,550.811 1511.19,554.621 1513.39,558.889C1515.6,563.158 1516.7,568.092 1516.7,573.692C1516.7,582.412 1514.95,589.664 1511.46,595.447C1507.98,601.231 1502.88,605.843 1496.18,609.286C1489.48,612.728 1481.26,615.138 1471.53,616.515C1461.8,617.892 1450.74,618.58 1438.35,618.58Z" style="fill:url(#_Linear2);fill-rule:nonzero;"/>
                    </g>
                    <g transform="matrix(1,0,0,1,-787.481,182.019)">
                        <path d="M1617.63,548.769C1620.57,548.769 1622.98,548.103 1624.86,546.772C1626.74,545.441 1628.23,543.789 1629.33,541.815C1630.43,539.842 1631.19,537.661 1631.6,535.275C1632.02,532.888 1632.22,530.639 1632.22,528.528C1632.22,523.754 1630.73,520.151 1627.75,517.719C1624.77,515.286 1620.52,514.07 1615.01,514.07C1610.97,514.07 1607.58,515.401 1604.82,518.063C1602.07,520.725 1600.69,524.764 1600.69,530.18C1600.69,532.2 1601.15,534.311 1602.07,536.514C1602.99,538.717 1604.23,540.714 1605.79,542.504C1607.35,544.294 1609.16,545.785 1611.23,546.979C1613.29,548.172 1615.42,548.769 1617.63,548.769ZM1558.69,635.241C1555.48,635.241 1552.48,634.782 1549.68,633.864C1546.88,632.946 1544.42,631.202 1542.31,628.632C1540.93,626.979 1539.76,624.065 1538.8,619.888C1537.83,615.711 1537.03,610.915 1536.39,605.499C1535.75,600.083 1535.24,594.277 1534.87,588.081C1534.51,581.884 1534.25,575.895 1534.12,570.112C1533.98,564.328 1533.89,559.073 1533.84,554.345C1533.8,549.618 1533.77,545.969 1533.77,543.399C1533.77,530.272 1534,517.168 1534.46,504.087C1534.92,491.006 1536.2,477.948 1538.32,464.913C1538.87,461.425 1539.72,458.051 1540.86,454.792C1542.01,451.533 1543.59,448.642 1545.61,446.117C1547.63,443.593 1550.09,441.574 1552.98,440.059C1555.87,438.544 1559.29,437.787 1563.24,437.787L1588.71,437.787C1592.48,437.787 1595.39,438.2 1597.46,439.026C1599.52,439.852 1601.13,440.747 1602.28,441.711C1603.42,442.675 1604.34,443.57 1605.03,444.396C1605.72,445.222 1606.61,445.636 1607.71,445.636C1608.08,445.636 1609.43,445.222 1611.78,444.396C1614.12,443.57 1617.05,442.675 1620.59,441.711C1624.12,440.747 1628.07,439.852 1632.43,439.026C1636.79,438.2 1641.22,437.787 1645.72,437.787C1651.96,437.787 1657.63,438.866 1662.72,441.023C1667.82,443.18 1672.32,446.117 1676.22,449.835C1680.12,453.553 1683.49,457.867 1686.34,462.779C1689.18,467.69 1691.55,472.876 1693.43,478.338C1695.31,483.8 1696.69,489.354 1697.56,494.999C1698.43,500.645 1698.87,506.129 1698.87,511.454C1698.87,517.42 1698.36,523.433 1697.35,529.492C1696.34,535.55 1694.81,541.379 1692.74,546.979C1690.67,552.578 1688.06,557.834 1684.89,562.745C1681.73,567.656 1677.96,571.925 1673.6,575.55C1669.24,579.176 1664.26,582.045 1658.66,584.156C1653.06,586.268 1646.87,587.323 1640.07,587.323C1635.3,587.323 1630.71,586.199 1626.3,583.95C1621.9,581.701 1617.97,579.222 1614.53,576.514C1611.09,573.806 1608.29,571.328 1606.13,569.079C1603.97,566.83 1602.76,565.705 1602.48,565.705C1601.93,565.705 1601.59,566.095 1601.45,566.876C1601.31,567.656 1601.24,568.23 1601.24,568.597C1601.24,572.452 1601.54,576.308 1602.14,580.163C1602.73,584.019 1603.4,587.828 1604.13,591.592C1604.87,595.356 1605.53,599.165 1606.13,603.021C1606.73,606.876 1607.03,610.731 1607.03,614.587C1607.03,621.472 1605.1,626.635 1601.24,630.078C1597.39,633.52 1592.11,635.241 1585.41,635.241L1558.69,635.241Z" style="fill:url(#_Linear3);fill-rule:nonzero;"/>
                    </g>
                    <g transform="matrix(1,0,0,1,-789.724,200.883)">
                        <path d="M1785.2,616.377C1772.17,616.377 1760.72,614.036 1750.85,609.355C1740.98,604.673 1732.74,598.201 1726.13,589.94C1719.52,581.678 1714.54,571.97 1711.19,560.817C1707.84,549.664 1706.17,537.616 1706.17,524.672C1706.17,495.114 1713.12,473.266 1727.03,459.13C1740.93,444.993 1761.2,437.925 1787.82,437.925C1798.19,437.925 1807.76,439.416 1816.53,442.4C1825.3,445.383 1832.87,449.72 1839.25,455.412C1845.63,461.103 1850.61,468.126 1854.19,476.479C1857.77,484.833 1859.56,494.379 1859.56,505.12C1859.56,513.381 1858.36,520.312 1855.98,525.912C1853.59,531.511 1850.45,536.124 1846.55,539.75C1842.64,543.376 1838.19,546.176 1833.19,548.149C1828.19,550.123 1823.09,551.615 1817.9,552.624C1812.72,553.634 1807.62,554.3 1802.62,554.621C1797.62,554.942 1793.17,555.286 1789.26,555.654C1785.36,556.021 1782.22,556.572 1779.83,557.306C1777.45,558.04 1776.25,559.28 1776.25,561.024C1776.25,562.951 1777.24,564.535 1779.21,565.774C1781.19,567.013 1783.66,567.977 1786.65,568.666C1789.63,569.354 1792.85,569.836 1796.29,570.112C1799.73,570.387 1802.87,570.525 1805.72,570.525C1810.58,570.525 1815.04,569.653 1819.08,567.908C1823.11,566.164 1826.83,564.214 1830.23,562.056C1833.62,559.899 1836.7,557.948 1839.45,556.204C1842.21,554.46 1844.69,553.588 1846.89,553.588C1850.47,553.588 1853.75,553.795 1856.74,554.208C1859.72,554.621 1862.29,555.401 1864.45,556.549C1866.6,557.696 1868.28,559.302 1869.47,561.368C1870.66,563.433 1871.26,566.118 1871.26,569.423C1871.26,574.839 1869.72,579.773 1866.65,584.225C1863.57,588.677 1859.58,592.648 1854.67,596.136C1849.76,599.624 1844.18,602.63 1837.94,605.155C1831.7,607.679 1825.39,609.768 1819.01,611.42C1812.63,613.072 1806.48,614.312 1800.56,615.138C1794.63,615.964 1789.52,616.377 1785.2,616.377ZM1783,523.984C1785.29,523.984 1787.54,523.479 1789.75,522.469C1791.95,521.459 1793.9,520.197 1795.6,518.683C1797.3,517.168 1798.67,515.539 1799.73,513.794C1800.79,512.05 1801.31,510.444 1801.31,508.975C1801.31,506.588 1800.81,504.523 1799.8,502.779C1798.79,501.035 1797.48,499.612 1795.87,498.51C1794.27,497.409 1792.52,496.606 1790.64,496.101C1788.76,495.596 1786.99,495.343 1785.34,495.343C1783.69,495.343 1781.76,495.688 1779.56,496.376C1777.35,497.064 1775.27,498.166 1773.29,499.681C1771.32,501.195 1769.67,503.1 1768.34,505.395C1767,507.69 1766.34,510.49 1766.34,513.794C1766.34,515.814 1766.84,517.489 1767.85,518.82C1768.86,520.151 1770.17,521.184 1771.78,521.918C1773.38,522.653 1775.17,523.181 1777.15,523.502C1779.12,523.823 1781.07,523.984 1783,523.984Z" style="fill:url(#_Linear4);fill-rule:nonzero;"/>
                    </g>
                    <g transform="matrix(1,0,0,1,-793.854,200.883)">
                        <path d="M1954.43,616.377C1941.39,616.377 1929.94,614.036 1920.07,609.355C1910.21,604.673 1901.97,598.201 1895.36,589.94C1888.75,581.678 1883.77,571.97 1880.42,560.817C1877.07,549.664 1875.39,537.616 1875.39,524.672C1875.39,495.114 1882.35,473.266 1896.25,459.13C1910.16,444.993 1930.42,437.925 1957.05,437.925C1967.42,437.925 1976.99,439.416 1985.76,442.4C1994.52,445.383 2002.1,449.72 2008.47,455.412C2014.85,461.103 2019.83,468.126 2023.41,476.479C2026.99,484.833 2028.78,494.379 2028.78,505.12C2028.78,513.381 2027.59,520.312 2025.2,525.912C2022.82,531.511 2019.67,536.124 2015.77,539.75C2011.87,543.376 2007.42,546.176 2002.42,548.149C1997.41,550.123 1992.32,551.615 1987.13,552.624C1981.94,553.634 1976.85,554.3 1971.85,554.621C1966.85,554.942 1962.39,555.286 1958.49,555.654C1954.59,556.021 1951.45,556.572 1949.06,557.306C1946.67,558.04 1945.48,559.28 1945.48,561.024C1945.48,562.951 1946.47,564.535 1948.44,565.774C1950.41,567.013 1952.89,567.977 1955.88,568.666C1958.86,569.354 1962.07,569.836 1965.51,570.112C1968.96,570.387 1972.1,570.525 1974.95,570.525C1979.81,570.525 1984.26,569.653 1988.3,567.908C1992.34,566.164 1996.06,564.214 1999.46,562.056C2002.85,559.899 2005.93,557.948 2008.68,556.204C2011.43,554.46 2013.91,553.588 2016.12,553.588C2019.7,553.588 2022.98,553.795 2025.96,554.208C2028.94,554.621 2031.52,555.401 2033.67,556.549C2035.83,557.696 2037.51,559.302 2038.7,561.368C2039.89,563.433 2040.49,566.118 2040.49,569.423C2040.49,574.839 2038.95,579.773 2035.88,584.225C2032.8,588.677 2028.81,592.648 2023.9,596.136C2018.99,599.624 2013.41,602.63 2007.17,605.155C2000.92,607.679 1994.61,609.768 1988.23,611.42C1981.85,613.072 1975.7,614.312 1969.78,615.138C1963.86,615.964 1958.74,616.377 1954.43,616.377ZM1952.23,523.984C1954.52,523.984 1956.77,523.479 1958.97,522.469C1961.18,521.459 1963.13,520.197 1964.83,518.683C1966.52,517.168 1967.9,515.539 1968.96,513.794C1970.01,512.05 1970.54,510.444 1970.54,508.975C1970.54,506.588 1970.04,504.523 1969.03,502.779C1968.02,501.035 1966.71,499.612 1965.1,498.51C1963.49,497.409 1961.75,496.606 1959.87,496.101C1957.99,495.596 1956.22,495.343 1954.57,495.343C1952.91,495.343 1950.99,495.688 1948.78,496.376C1946.58,497.064 1944.49,498.166 1942.52,499.681C1940.55,501.195 1938.89,503.1 1937.56,505.395C1936.23,507.69 1935.57,510.49 1935.57,513.794C1935.57,515.814 1936.07,517.489 1937.08,518.82C1938.09,520.151 1939.4,521.184 1941,521.918C1942.61,522.653 1944.4,523.181 1946.37,523.502C1948.35,523.823 1950.3,523.984 1952.23,523.984Z" style="fill:url(#_Linear5);fill-rule:nonzero;"/>
                    </g>
                    <g transform="matrix(1,0,0,1,-798.536,205.565)">
                        <path d="M2133.3,615C2118.88,615 2106.17,613.118 2095.15,609.355C2084.14,605.591 2074.93,600.106 2067.55,592.9C2060.16,585.694 2054.58,576.79 2050.82,566.187C2047.05,555.585 2045.17,543.445 2045.17,529.767C2045.17,515.263 2047.14,502.32 2051.09,490.937C2055.04,479.554 2060.78,469.916 2068.3,462.021C2075.83,454.127 2085.03,448.114 2095.91,443.983C2106.79,439.852 2119.16,437.787 2133.02,437.787C2154.78,437.787 2171.09,441.826 2181.97,449.904C2192.85,457.982 2198.29,470.834 2198.29,488.459C2198.29,496.169 2197.55,503.421 2196.08,510.214C2194.62,517.007 2192.43,522.974 2189.54,528.115C2186.65,533.255 2183.09,537.317 2178.87,540.301C2174.65,543.284 2169.78,544.776 2164.28,544.776C2154.91,544.776 2147.96,543.445 2143.41,540.783C2138.87,538.12 2136.6,533.485 2136.6,526.875C2136.6,525.131 2136.51,523.295 2136.32,521.368C2136.14,519.44 2135.73,517.673 2135.09,516.066C2134.44,514.46 2133.5,513.129 2132.26,512.073C2131.02,511.018 2129.35,510.49 2127.24,510.49C2124.67,510.49 2122.39,510.903 2120.42,511.729C2118.45,512.555 2116.77,513.909 2115.39,515.791C2114.02,517.673 2112.96,520.105 2112.23,523.089C2111.49,526.072 2111.13,529.767 2111.13,534.173C2111.13,539.222 2111.61,543.468 2112.57,546.91C2113.54,550.352 2115.19,553.152 2117.53,555.309C2119.87,557.467 2123.04,559.027 2127.03,559.991C2131.02,560.955 2136,561.437 2141.97,561.437C2146.74,561.437 2151.36,560.427 2155.81,558.407C2160.26,556.388 2164.44,554.139 2168.34,551.66C2172.24,549.182 2175.77,546.933 2178.94,544.913C2182.11,542.894 2184.84,541.884 2187.13,541.884C2190.62,541.884 2193.81,542.618 2196.7,544.087C2199.6,545.556 2202.07,547.484 2204.14,549.87C2206.2,552.257 2207.81,555.011 2208.96,558.132C2210.11,561.253 2210.68,564.466 2210.68,567.771C2210.68,573.462 2209.39,578.58 2206.82,583.124C2204.25,587.668 2200.86,591.707 2196.63,595.241C2192.41,598.775 2187.57,601.781 2182.11,604.26C2176.65,606.738 2171.05,608.781 2165.31,610.387C2159.57,611.994 2153.93,613.164 2148.37,613.898C2142.82,614.633 2137.79,615 2133.3,615Z" style="fill:url(#_Linear6);fill-rule:nonzero;"/>
                    </g>
                    <g transform="matrix(1,0,0,1,-809.276,205.014)">
                        <path d="M2362.28,615.275C2359.71,615.275 2356.31,615.344 2352.09,615.482C2347.87,615.62 2343.6,615.551 2339.29,615.275C2334.97,615 2330.93,614.426 2327.17,613.554C2323.41,612.682 2320.61,611.282 2318.77,609.355C2317.67,608.253 2316.87,606.991 2316.36,605.568C2315.86,604.145 2315.51,602.676 2315.33,601.162C2315.14,599.647 2315.05,598.086 2315.05,596.48L2315.05,592.005C2315.05,587.599 2315.1,584.156 2315.19,581.678C2315.28,579.199 2315.4,576.95 2315.53,574.931C2315.67,572.911 2315.79,570.662 2315.88,568.184C2315.97,565.705 2316.02,562.263 2316.02,557.857C2316.02,552.716 2314.75,549.274 2312.23,547.53C2309.7,545.785 2306.1,544.913 2301.42,544.913C2296.74,544.913 2293.39,546.359 2291.37,549.251C2289.35,552.142 2288.34,556.204 2288.34,561.437C2288.34,563.915 2288.43,565.935 2288.61,567.495C2288.8,569.056 2289.05,570.364 2289.37,571.42C2289.69,572.475 2290.08,573.416 2290.54,574.242C2291,575.069 2291.46,576.009 2291.92,577.065C2292.38,578.121 2292.86,579.406 2293.37,580.921C2293.87,582.435 2294.35,584.386 2294.81,586.773C2295.36,589.343 2295.64,592.051 2295.64,594.897C2295.64,601.781 2293.76,606.853 2289.99,610.112C2286.23,613.371 2281.04,615 2274.43,615L2247.17,615.138C2244.14,615.138 2241.18,614.679 2238.29,613.761C2235.39,612.843 2232.99,611.145 2231.06,608.666C2229.5,606.647 2228.17,603.25 2227.07,598.477C2225.96,593.703 2225.05,588.218 2224.31,582.022C2223.58,575.826 2223.03,569.217 2222.66,562.194C2222.29,555.172 2222.02,548.402 2221.83,541.884C2221.65,535.367 2221.53,529.4 2221.49,523.984C2221.44,518.568 2221.42,514.345 2221.42,511.316C2221.42,500.3 2221.65,489.262 2222.11,478.2C2222.57,467.139 2223.58,456.146 2225.14,445.222C2225.5,442.836 2226.03,440.128 2226.72,437.098C2227.41,434.069 2228.35,430.994 2229.54,427.873C2230.74,424.752 2232.25,421.723 2234.09,418.785C2235.92,415.848 2238.15,413.231 2240.76,410.936C2243.38,408.642 2246.43,406.783 2249.92,405.36C2253.41,403.937 2257.4,403.226 2261.9,403.226C2266.86,403.226 2271.66,403.386 2276.29,403.707C2280.93,404.029 2285.06,405.107 2288.68,406.943C2292.31,408.779 2295.22,411.671 2297.43,415.618C2299.63,419.565 2300.73,425.211 2300.73,432.555C2300.73,435.676 2300.02,439.095 2298.6,442.813C2297.17,446.531 2295.64,450.317 2293.98,454.173C2292.33,458.028 2290.79,461.815 2289.37,465.532C2287.95,469.25 2287.24,472.624 2287.24,475.653L2287.24,476.892C2287.24,477.535 2287.31,478.177 2287.44,478.82C2287.58,479.463 2287.76,480.036 2287.99,480.541C2288.22,481.046 2288.52,481.298 2288.89,481.298C2289.62,481.298 2290.47,480.518 2291.44,478.958C2292.4,477.397 2293.59,475.446 2295.02,473.106C2296.44,470.765 2298.16,468.24 2300.18,465.532C2302.2,462.824 2304.61,460.3 2307.41,457.959C2310.21,455.618 2313.45,453.668 2317.12,452.107C2320.79,450.547 2325.01,449.766 2329.78,449.766C2337.95,449.766 2345.05,451.717 2351.06,455.618C2357.07,459.52 2362.24,464.66 2366.55,471.04C2370.86,477.42 2374.42,484.649 2377.22,492.727C2380.02,500.805 2382.22,509.044 2383.83,517.443C2385.44,525.843 2386.56,533.99 2387.2,541.884C2387.85,549.779 2388.17,556.709 2388.17,562.676C2388.17,564.328 2388.14,566.486 2388.1,569.148C2388.05,571.81 2387.96,574.701 2387.82,577.822C2387.69,580.944 2387.48,584.133 2387.2,587.392C2386.93,590.651 2386.51,593.749 2385.96,596.687C2385.41,599.624 2384.72,602.263 2383.9,604.604C2383.07,606.945 2382.06,608.712 2380.87,609.905C2378.48,612.292 2375.59,613.784 2372.2,614.38C2368.8,614.977 2365.49,615.275 2362.28,615.275Z" style="fill:url(#_Linear7);fill-rule:nonzero;"/>
                    </g>
                </g>
            </g>
            <g id="rustacean-flat-gesture.svg" transform="matrix(0.118073,0.0665497,-0.0608114,0.107892,439.895,464.06)">
                <g transform="matrix(1,0,0,1,-600,-400)">
                    <g id="Layer-1" serif:id="Layer 1">
                        <g transform="matrix(1,0,0,1,654.172,668.359)">
                            <path d="M0,-322.648C-114.597,-322.648 -218.172,-308.869 -296.172,-286.419L-296.172,-291.49C-374.172,-266.395 -423.853,-231.531 -423.853,-192.984C-423.853,-186.907 -422.508,-180.922 -420.15,-175.053L-428.134,-160.732C-428.134,-160.732 -434.547,-152.373 -423.199,-134.733C-413.189,-119.179 -363.035,-58.295 -336.571,-26.413C-325.204,-10.065 -317.488,0 -316.814,-0.973C-315.753,-2.516 -323.878,-33.202 -346.453,-68.215C-356.986,-87.02 -369.811,-111.934 -377.361,-130.335C-356.28,-116.993 -328.172,-104.89 -296.172,-94.474L-296.172,-94.633C-218.172,-72.18 -114.597,-58.404 0,-58.404C131.156,-58.404 248.828,-76.45 327.828,-104.895L327.828,-276.153C248.828,-304.6 131.156,-322.648 0,-322.648" style="fill:rgb(165,43,0);fill-rule:nonzero;"/>
                        </g>
                        <g transform="matrix(1,0,0,1,1099.87,554.94)">
                            <path d="M0,-50.399L-13.433,-78.227C-13.362,-79.283 -13.309,-80.341 -13.309,-81.402C-13.309,-112.95 -46.114,-142.022 -101.306,-165.303L-101.306,2.499C-75.555,-8.365 -54.661,-20.485 -39.72,-33.538C-44.118,-15.855 -59.157,19.917 -71.148,45.073C-90.855,81.054 -97.993,112.376 -97.077,113.926C-96.493,114.904 -89.77,104.533 -79.855,87.726C-56.783,54.85 -13.063,-7.914 -4.325,-23.901C5.574,-42.024 0,-50.399 0,-50.399" style="fill:rgb(165,43,0);fill-rule:nonzero;"/>
                        </g>
                        <g transform="matrix(1,0,0,1,1177.87,277.21)">
                            <path d="M0,227.175L-88.296,162.132C-89.126,159.237 -89.956,156.345 -90.812,153.474L-61.81,111.458C-58.849,107.184 -58.252,101.629 -60.175,96.755C-62.1,91.905 -66.311,88.428 -71.292,87.576L-120.335,79.255C-122.233,75.376 -124.225,71.557 -126.224,67.771L-105.62,20.599C-103.501,15.793 -103.947,10.209 -106.759,5.848C-109.556,1.465 -114.31,-1.094 -119.376,-0.895L-169.146,0.914C-171.723,-2.442 -174.34,-5.766 -177.012,-9.032L-165.574,-59.592C-164.415,-64.724 -165.876,-70.1 -169.453,-73.83C-173.008,-77.546 -178.175,-79.084 -183.089,-77.88L-231.567,-65.961C-234.707,-68.736 -237.897,-71.474 -241.126,-74.157L-239.381,-126.064C-239.193,-131.318 -241.643,-136.311 -245.849,-139.227C-250.053,-142.161 -255.389,-142.603 -259.987,-140.423L-305.213,-118.921C-308.853,-121.011 -312.515,-123.081 -316.218,-125.084L-324.209,-176.232C-325.021,-181.413 -328.355,-185.816 -333.024,-187.826C-337.679,-189.848 -343.014,-189.193 -347.101,-186.116L-387.422,-155.863C-391.392,-157.181 -395.38,-158.446 -399.418,-159.655L-416.798,-208.159C-418.564,-213.104 -422.64,-216.735 -427.608,-217.756C-432.561,-218.768 -437.656,-217.053 -441.091,-213.217L-475.029,-175.246C-479.133,-175.717 -483.239,-176.147 -487.356,-176.505L-513.564,-220.659C-516.22,-225.131 -520.908,-227.852 -525.961,-227.852C-531.002,-227.852 -535.7,-225.131 -538.333,-220.659L-564.547,-176.505C-568.666,-176.147 -572.791,-175.717 -576.888,-175.246L-610.831,-213.217C-614.268,-217.053 -619.382,-218.768 -624.318,-217.756C-629.284,-216.721 -633.363,-213.104 -635.124,-208.159L-652.517,-159.655C-656.544,-158.446 -660.534,-157.173 -664.514,-155.863L-704.822,-186.116C-708.92,-189.204 -714.254,-189.857 -718.92,-187.826C-723.57,-185.816 -726.917,-181.413 -727.723,-176.232L-735.72,-125.084C-739.42,-123.081 -743.083,-121.022 -746.734,-118.921L-791.956,-140.423C-796.548,-142.612 -801.908,-142.161 -806.091,-139.227C-810.292,-136.311 -812.747,-131.318 -812.557,-126.064L-810.821,-74.157C-814.04,-71.474 -817.224,-68.736 -820.379,-65.961L-868.849,-77.88C-873.774,-79.075 -878.935,-77.546 -882.499,-73.83C-886.084,-70.1 -887.538,-64.724 -886.384,-59.592L-874.969,-9.032C-877.618,-5.753 -880.239,-2.442 -882.808,0.914L-932.579,-0.895C-937.602,-1.043 -942.396,1.465 -945.202,5.848C-948.014,10.209 -948.439,15.793 -946.348,20.599L-925.729,67.771C-927.732,71.557 -929.721,75.376 -931.635,79.255L-980.675,87.576C-985.657,88.417 -989.858,91.892 -991.795,96.755C-993.72,101.629 -993.095,107.184 -990.156,111.458L-961.146,153.474C-961.37,154.215 -961.576,154.964 -961.799,155.707L-1043.82,242.829C-1043.82,242.829 -1056.38,252.68 -1038.09,275.831C-1021.95,296.252 -939.097,377.207 -895.338,419.62C-876.855,441.152 -864.195,454.486 -862.872,453.332C-860.784,451.5 -871.743,412.326 -908.147,366.362C-936.207,325.123 -972.625,261.696 -964.086,254.385C-964.086,254.385 -954.372,242.054 -934.882,233.178C-934.169,233.749 -935.619,232.613 -934.882,233.178C-934.882,233.178 -523.568,422.914 -142.036,236.388C-98.452,228.571 -72.068,251.917 -72.068,251.917C-62.969,257.193 -86.531,322.412 -105.906,365.583C-132.259,414.606 -136.123,452.859 -133.888,454.185C-132.479,455.027 -122.89,440.438 -109.214,417.219C-75.469,370.196 -11.675,280.554 0,258.781C13.239,234.094 0,227.175 0,227.175" style="fill:rgb(247,76,0);fill-rule:nonzero;"/>
                        </g>
                        <g transform="matrix(1,0,0,1,795.856,464.937)">
                            <path d="M0,159.631C1.575,158.289 2.4,157.492 2.4,157.492L-132.25,144.985C-22.348,0 65.618,116.967 74.988,129.879L74.988,159.631L0,159.631Z" style="fill-rule:nonzero;"/>
                        </g>
                        <g transform="matrix(1,0,0,1,278.418,211.791)">
                            <path d="M0,253.04C0,253.04 -111.096,209.79 -129.876,163.242C-129.876,163.242 0.515,59.525 -155.497,-50.644L-159.726,89.773C-159.726,89.773 -205.952,45.179 -203.912,-32.91C-203.912,-32.91 -347.685,36.268 -179.436,158.667C-179.436,158.667 -173.76,224.365 -22.459,303.684L0,253.04Z" style="fill:rgb(247,76,0);fill-rule:nonzero;"/>
                        </g>
                        <g transform="matrix(1,0,0,1,729.948,492.523)">
                            <path d="M0,-87.016C0,-87.016 41.104,-132.025 82.21,-87.016C82.21,-87.016 114.507,-27.003 82.21,3C82.21,3 29.36,45.009 0,3C0,3 -35.232,-30.006 0,-87.016" style="fill-rule:nonzero;"/>
                        </g>
                        <g transform="matrix(1,0,0,1,777.536,422.196)">
                            <path d="M0,0.008C0,17.531 -10.329,31.738 -23.07,31.738C-35.809,31.738 -46.139,17.531 -46.139,0.008C-46.139,-17.521 -35.809,-31.73 -23.07,-31.73C-10.329,-31.73 0,-17.521 0,0.008" style="fill:white;fill-rule:nonzero;"/>
                        </g>
                        <g transform="matrix(1,0,0,1,546.49,486.263)">
                            <path d="M0,-93.046C0,-93.046 70.508,-124.265 89.753,-54.583C89.753,-54.583 109.912,26.635 31.851,31.219C31.851,31.219 -67.69,12.047 0,-93.046" style="fill-rule:nonzero;"/>
                        </g>
                        <g transform="matrix(1,0,0,1,581.903,423.351)">
                            <path d="M0,0.002C0,18.074 -10.653,32.731 -23.794,32.731C-36.931,32.731 -47.586,18.074 -47.586,0.002C-47.586,-18.076 -36.931,-32.729 -23.794,-32.729C-10.653,-32.729 0,-18.076 0,0.002" style="fill:white;fill-rule:nonzero;"/>
                        </g>
                        <g transform="matrix(1,0,0,1,1002.23,778.679)">
                            <path d="M0,-296.808C0,-296.808 -14.723,-238.165 -106.292,-176.541L-131.97,-170.523C-131.97,-170.523 -215.036,-322.004 -332.719,-151.302C-332.719,-151.302 -296.042,-172.656 -197.719,-146.652C-197.719,-146.652 -242.949,-77.426 -334.061,-79.553C-334.061,-79.553 -246.748,25.196 -113.881,-126.107C-113.881,-126.107 26.574,-180.422 37.964,-296.808L0,-296.808Z" style="fill:rgb(247,76,0);fill-rule:nonzero;"/>
                        </g>
                    </g>
                </g>
            </g>
        </g>
    </g>
    <defs>
        <linearGradient id="_Linear1" x1="0" y1="0" x2="1" y2="0" gradientUnits="userSpaceOnUse" gradientTransform="matrix(127.047,0,0,147.39,588.736,452.261)"><stop offset="0" style="stop-color:rgb(52,13,12);stop-opacity:1"/><stop offset="1" style="stop-color:rgb(161,78,76);stop-opacity:1"/></linearGradient>
        <linearGradient id="_Linear2" x1="0" y1="0" x2="1" y2="0" gradientUnits="userSpaceOnUse" gradientTransform="matrix(152.153,0,0,200.759,1364.55,518.201)"><stop offset="0" style="stop-color:rgb(0,31,152);stop-opacity:1"/><stop offset="1" style="stop-color:rgb(0,51,255);stop-opacity:1"/></linearGradient>
        <linearGradient id="_Linear3" x1="0" y1="0" x2="1" y2="0" gradientUnits="userSpaceOnUse" gradientTransform="matrix(165.096,0,0,197.454,1533.77,536.514)"><stop offset="0" style="stop-color:rgb(0,31,152);stop-opacity:1"/><stop offset="1" style="stop-color:rgb(0,51,255);stop-opacity:1"/></linearGradient>
        <linearGradient id="_Linear4" x1="0" y1="0" x2="1" y2="0" gradientUnits="userSpaceOnUse" gradientTransform="matrix(165.096,0,0,178.452,1706.17,527.151)"><stop offset="0" style="stop-color:rgb(0,31,152);stop-opacity:1"/><stop offset="1" style="stop-color:rgb(0,51,255);stop-opacity:1"/></linearGradient>
        <linearGradient id="_Linear5" x1="0" y1="0" x2="1" y2="0" gradientUnits="userSpaceOnUse" gradientTransform="matrix(165.096,0,0,178.452,1875.39,527.151)"><stop offset="0" style="stop-color:rgb(0,31,152);stop-opacity:1"/><stop offset="1" style="stop-color:rgb(0,51,255);stop-opacity:1"/></linearGradient>
        <linearGradient id="_Linear6" x1="0" y1="0" x2="1" y2="0" gradientUnits="userSpaceOnUse" gradientTransform="matrix(165.509,0,0,177.213,2045.17,526.393)"><stop offset="0" style="stop-color:rgb(0,31,152);stop-opacity:1"/><stop offset="1" style="stop-color:rgb(0,51,255);stop-opacity:1"/></linearGradient>
        <linearGradient id="_Linear7" x1="0" y1="0" x2="1" y2="0" gradientUnits="userSpaceOnUse" gradientTransform="matrix(166.748,0,0,212.325,2221.42,509.388)"><stop offset="0" style="stop-color:rgb(0,31,152);stop-opacity:1"/><stop offset="1" style="stop-color:rgb(0,51,255);stop-opacity:1"/></linearGradient>
    </defs>
</svg>
